<svg width="15" height="15" viewBox="0 0 15 15" fill="none" xmlns="http://www.w3.org/2000/svg">
<path fill-rule="evenodd" clip-rule="evenodd" d="M13.3008 0.5L14.0078 1.207L7.71475 7.5L7.00775 8.207L6.30075 7.5L13.3008 0.5ZM7.00775 6.793L6.30075 7.5L13.3008 14.5L14.0078 13.793L7.71475 7.5L7.00775 6.793Z" fill="#82AD00"/>
<path d="M7.00775 8.207L7.71475 7.5L7.00775 6.793L6.30075 7.5L7.00775 8.207Z" fill="#82AD00"/>
<path fill-rule="evenodd" clip-rule="evenodd" d="M0.718719 0.5L0.0117188 1.207L6.30472 7.5L7.01172 8.207L7.71872 7.5L0.718719 0.5ZM7.01172 6.793L7.71872 7.5L0.718719 14.5L0.0117188 13.793L6.30472 7.5L7.01172 6.793Z" fill="#82AD00"/>
<path d="M7.01172 8.207L6.30472 7.5L7.01172 6.793L7.71872 7.5L7.01172 8.207Z" fill="#82AD00"/>
</svg>
