<svg width="18" height="22" viewBox="0 0 18 22" fill="none" xmlns="http://www.w3.org/2000/svg">
<mask id="path-1-outside-1_145_7698" maskUnits="userSpaceOnUse" x="0" y="0" width="18" height="22" fill="black">
<rect fill="white" width="18" height="22"/>
<path d="M9 17L14 10.125H4L9 17Z"/>
<path d="M6.37568 2H11.6243V10.1863H6.37568V2Z"/>
</mask>
<path d="M1 20C0.447715 20 0 20.4477 0 21C0 21.5523 0.447715 22 1 22V20ZM17 22C17.5523 22 18 21.5523 18 21C18 20.4477 17.5523 20 17 20V22ZM1 22H17V20H1V22ZM9 17L7.38253 18.1763C7.75888 18.6938 8.36013 19 9 19C9.63987 19 10.2411 18.6938 10.6175 18.1763L9 17ZM14 10.125L15.6175 11.3013C16.0599 10.693 16.1236 9.88779 15.7822 9.21744C15.4409 8.5471 14.7522 8.125 14 8.125V10.125ZM4 10.125V8.125C3.24775 8.125 2.55912 8.5471 2.21777 9.21744C1.87642 9.88779 1.94008 10.693 2.38253 11.3013L4 10.125ZM6.37568 2V0C5.27111 0 4.37568 0.89543 4.37568 2L6.37568 2ZM11.6243 2H13.6243C13.6243 0.89543 12.7289 0 11.6243 0V2ZM11.6243 10.1863V12.1863C12.7289 12.1863 13.6243 11.2908 13.6243 10.1863H11.6243ZM6.37568 10.1863H4.37568C4.37568 11.2908 5.27111 12.1863 6.37568 12.1863V10.1863ZM10.6175 18.1763L15.6175 11.3013L12.3825 8.94866L7.38253 15.8237L10.6175 18.1763ZM14 8.125H4V12.125H14V8.125ZM2.38253 11.3013L7.38253 18.1763L10.6175 15.8237L5.61747 8.94866L2.38253 11.3013ZM6.37568 4H11.6243V0H6.37568V4ZM9.62432 2V10.1863H13.6243V2H9.62432ZM11.6243 8.18627H6.37568V12.1863H11.6243V8.18627ZM8.37568 10.1863V2H4.37568V10.1863H8.37568Z" fill="#82AD00" mask="url(#path-1-outside-1_145_7698)"/>
</svg>
