<svg width="20" height="23" viewBox="0 0 20 23" fill="none" xmlns="http://www.w3.org/2000/svg">
<path d="M10.3571 8.24126V18.3794M7.14286 4.25874H12.8571M7.14286 4.25874H2.14286M7.14286 4.25874V2.44814C7.142 2.25857 7.17857 2.07071 7.25 1.89552C7.32143 1.72004 7.42658 1.56067 7.55915 1.42604C7.69172 1.2917 7.84944 1.18497 8.02316 1.11162C8.19687 1.03855 8.38314 1.00058 8.57143 1H11.4286C11.6166 1.00058 11.8029 1.03855 11.9766 1.11162C12.1503 1.18497 12.308 1.2917 12.4406 1.42604C12.5734 1.56067 12.6783 1.72004 12.7497 1.89552C12.8212 2.07071 12.8577 2.25857 12.8571 2.44814V4.25874M12.8571 4.25874H17.8571M2.14286 4.25874H0M2.14286 4.25874V19.8275C2.14171 20.1117 2.1963 20.3936 2.30373 20.6566C2.41087 20.9195 2.5683 21.1589 2.76744 21.3605C2.9663 21.5625 3.20287 21.7227 3.46315 21.8323C3.72372 21.9419 4.00314 21.9991 4.28571 22H15.7143C15.9966 21.9991 16.276 21.9419 16.5366 21.8323C16.7972 21.7227 17.0334 21.5625 17.2326 21.3605C17.4314 21.1589 17.5891 20.9195 17.6963 20.6566C17.8034 20.3936 17.858 20.1117 17.8571 19.8275V4.25874M2.14286 4.25874H17.8571M17.8571 4.25874H20M6.78571 8.24126V18.3794M13.9286 8.24126V18.3794" stroke="#C0FF00" stroke-linejoin="round"/>
</svg>
