<svg width="17" height="22" viewBox="0 0 17 22" fill="none" xmlns="http://www.w3.org/2000/svg">
<g clip-path="url(#clip0_145_17944)">
<path d="M8.49956 9.86261C9.35309 9.86261 10.045 9.18332 10.045 8.34537C10.045 7.50742 9.35309 6.82812 8.49956 6.82812C7.64603 6.82812 6.9541 7.50742 6.9541 8.34537C6.9541 9.18332 7.64603 9.86261 8.49956 9.86261Z" stroke="#82AD00" stroke-width="2" stroke-miterlimit="10" stroke-linecap="round" stroke-linejoin="round"/>
<path d="M3.86337 10.544C2.39519 11.682 1.2361 13.2751 0.772461 15.1716H2.54973C3.70882 15.1716 4.55882 14.1095 4.24973 13.0475C3.94064 11.9854 3.7861 10.9233 3.7861 9.7854C3.86337 5.61298 5.79519 2.04747 8.49973 0.757812C11.2043 2.04747 13.1361 5.61299 13.1361 9.70954C13.1361 10.8475 12.9816 11.9854 12.6725 12.9716C12.3634 14.0337 13.2134 15.0957 14.3725 15.0957H16.227C15.7634 13.1992 14.6043 11.5302 13.1361 10.4682" stroke="#82AD00" stroke-width="2" stroke-miterlimit="10" stroke-linecap="round" stroke-linejoin="round"/>
<path d="M8.5 15.1719V21.2408" stroke="#82AD00" stroke-width="2" stroke-miterlimit="10" stroke-linecap="round" stroke-linejoin="round"/>
<path d="M6.18164 16.6895V19.7239" stroke="#82AD00" stroke-width="2" stroke-miterlimit="10" stroke-linecap="round" stroke-linejoin="round"/>
<path d="M10.8184 16.6895V19.7239" stroke="#82AD00" stroke-width="2" stroke-miterlimit="10" stroke-linecap="round" stroke-linejoin="round"/>
</g>
<defs>
<clipPath id="clip0_145_17944">
<rect width="17" height="22" fill="white"/>
</clipPath>
</defs>
</svg>
