<svg width="26" height="16" viewBox="0 0 26 16" fill="none" xmlns="http://www.w3.org/2000/svg">
<path fill-rule="evenodd" clip-rule="evenodd" d="M13 0C20.1707 0 26 8 26 8C26 8 20.1951 16 13 16C5.80488 16 0 8 0 8C0 8 5.82927 0 13 0ZM13 1.33333C19 1.33333 23.8537 7.90303 23.8537 7.90303C23.8537 7.90303 19 14.4727 13 14.4727C7 14.4727 2.14635 7.90303 2.14635 7.90303C2.14635 7.90303 7 1.33333 13 1.33333ZM12.9756 1.45455C14.042 1.45697 15.0846 1.76872 15.9756 2.35151C16.861 2.93697 17.5493 3.77284 17.9512 4.75151C18.36 5.73284 18.4702 6.81163 18.2683 7.85454C18.0507 8.88678 17.5432 9.83661 16.8049 10.5939C16.0483 11.3406 15.0861 11.8473 14.0398 12.0502C12.9934 12.2531 11.91 12.1428 10.9268 11.7333C9.94147 11.3309 9.09927 10.6451 8.50829 9.76412C7.91732 8.88315 7.60439 7.84679 7.60976 6.78788C7.60586 6.08412 7.74439 5.38691 8.01659 4.73722C8.28903 4.08752 8.68976 3.4989 9.19512 3.00605C10.199 2.01187 11.5585 1.45406 12.9756 1.45455ZM14.8537 2.35151C15.4341 2.35175 16.002 2.52025 16.4878 2.83637C16.9783 3.15249 17.361 3.60872 17.5854 4.14545C17.8098 4.68145 17.8693 5.27151 17.7563 5.84097C17.6434 6.41067 17.3632 6.93406 16.9512 7.34545C16.5407 7.75879 16.0132 8.03806 15.439 8.14545C14.8659 8.25963 14.2715 8.20073 13.7322 7.976C13.1932 7.75127 12.7341 7.37139 12.4146 6.88484C12.0966 6.40217 11.9271 5.83758 11.9268 5.26061C11.9241 4.87806 11.9988 4.4989 12.1463 4.14545C12.2907 3.79078 12.5066 3.46885 12.7805 3.2C13.0554 2.93309 13.3781 2.71927 13.7317 2.56969C14.0871 2.42302 14.4688 2.34884 14.8537 2.35151Z" fill="#82AD00"/>
</svg>
