<svg width="21" height="22" viewBox="0 0 21 22" fill="none" xmlns="http://www.w3.org/2000/svg">
<path d="M10.8393 7.89644V17.5518V7.89644ZM7.78571 4.10356H13.2143H7.78571ZM7.78571 4.10356H3.03571H7.78571ZM7.78571 4.10356V2.37918C7.7849 2.19863 7.81964 2.01973 7.8875 1.85288C7.95536 1.68576 8.05525 1.53397 8.18119 1.40575C8.30714 1.27781 8.45697 1.17616 8.622 1.1063C8.78703 1.03671 8.96399 1.00055 9.14286 1H11.8571C12.0357 1.00055 12.2127 1.03671 12.3778 1.1063C12.5428 1.17616 12.6926 1.27781 12.8186 1.40575C12.9448 1.53397 13.0444 1.68576 13.1122 1.85288C13.1801 2.01973 13.2148 2.19863 13.2143 2.37918V4.10356H7.78571ZM13.2143 4.10356H17.9643H13.2143ZM1 4.10356H3.03571H1ZM3.03571 4.10356V18.931C3.03463 19.2016 3.08648 19.4701 3.18854 19.7205C3.29033 19.971 3.43988 20.1989 3.62907 20.391C3.81798 20.5833 4.04272 20.7359 4.28999 20.8403C4.53754 20.9447 4.80299 20.9992 5.07143 21H15.9286C16.1967 20.9992 16.4622 20.9447 16.7098 20.8403C16.9573 20.7359 17.1818 20.5833 17.371 20.391C17.5599 20.1989 17.7097 19.971 17.8115 19.7205C17.9133 19.4701 17.9651 19.2016 17.9643 18.931V4.10356H3.03571ZM17.9643 4.10356H20H17.9643ZM7.44643 7.89644V17.5518V7.89644ZM14.2321 7.89644V17.5518V7.89644Z" stroke="#82AD00" stroke-width="2" stroke-linejoin="round"/>
</svg>
