<svg width="15" height="16" viewBox="0 0 15 16" fill="none" xmlns="http://www.w3.org/2000/svg">
<path d="M7.45597 10.107C6.27099 10.107 5.31038 9.14761 5.31038 7.96415C5.31038 6.78068 6.27099 5.82129 7.45597 5.82129C8.64095 5.82129 9.60156 6.78068 9.60156 7.96415C9.60156 9.14761 8.64095 10.107 7.45597 10.107Z" stroke="black" stroke-miterlimit="10" stroke-linecap="round" stroke-linejoin="round"/>
<path d="M1.12794 4.96429L1.66434 4.05357C1.98618 3.51786 2.62986 3.35714 3.11262 3.67857L3.38082 3.83929C4.45361 4.48214 5.79461 3.67857 5.79461 2.44643V2.07143C5.79461 1.48214 6.27737 1 6.86741 1H7.9402C8.53024 1 9.013 1.48214 9.013 2.07143V2.39286C9.013 3.625 10.354 4.42857 11.4268 3.78571L11.7486 3.625C12.285 3.30357 12.9287 3.51786 13.1969 4L13.7333 4.91071C14.0551 5.44643 13.8942 6.08929 13.3578 6.41071L13.0896 6.57143C12.0168 7.21429 12.0168 8.71429 13.0896 9.35714L13.3578 9.51786C13.8942 9.83929 14.0551 10.4821 13.7333 10.9643L13.1969 11.875C12.8751 12.4107 12.2314 12.5714 11.7486 12.25L11.4804 12.0893C10.4076 11.4464 9.06664 12.25 9.06664 13.4821V13.8571C9.06664 14.4464 8.58388 14.9286 7.99384 14.9286H6.92105C6.33101 14.9286 5.84825 14.4464 5.84825 13.8571V13.5357C5.84825 12.3036 4.50725 11.5 3.43446 12.1429L3.16626 12.3036C2.62986 12.625 1.98618 12.4107 1.71798 11.9286L1.18158 11.0179C0.859742 10.4821 1.0743 9.83929 1.55706 9.57143L1.82526 9.41071C2.89806 8.76786 2.89806 7.26786 1.82526 6.625L1.55706 6.46429C1.02066 6.08929 0.859743 5.44643 1.12794 4.96429Z" stroke="black" stroke-miterlimit="10" stroke-linecap="round" stroke-linejoin="round"/>
</svg>
