<svg width="15" height="16" viewBox="0 0 15 16" fill="none" xmlns="http://www.w3.org/2000/svg">
<path fill-rule="evenodd" clip-rule="evenodd" d="M9.57996 1.65H9.63C11.1638 2.0754 12.5175 2.98856 13.4863 4.25146C14.4552 5.51437 14.9864 7.05834 15 8.64999C14.9291 10.5904 14.1084 12.4277 12.7106 13.7754C11.3127 15.1231 9.44672 15.8762 7.505 15.8762C5.56329 15.8762 3.69728 15.1231 2.29944 13.7754C0.901601 12.4277 0.0808993 10.5904 0.0100098 8.64999C0.0188495 7.13208 0.502988 5.65507 1.39441 4.42645C2.28583 3.19783 3.53971 2.27935 4.97998 1.8V3.60001C4.00903 4.04192 3.18459 4.75197 2.60352 5.64661C2.02244 6.54125 1.70889 7.58325 1.69995 8.64999C1.72812 10.1643 2.34953 11.6071 3.43042 12.6681C4.51131 13.7291 5.96539 14.3235 7.47998 14.3235C8.99458 14.3235 10.4486 13.7291 11.5295 12.6681C12.6104 11.6071 13.2318 10.1643 13.26 8.64999C13.2554 7.50399 12.9005 6.38682 12.2427 5.44839C11.5849 4.50997 10.6557 3.79518 9.57996 3.39999V1.65ZM6.45996 0H8.25V6.85001H6.45996V0Z" fill="#03A9F3"/>
</svg>
