<svg width="13" height="13" viewBox="0 0 13 13" fill="none" xmlns="http://www.w3.org/2000/svg">
<path d="M5.33594 7.0411C6.26744 8.24658 7.96607 8.52055 9.17155 7.58904C9.28114 7.53425 9.39073 7.42466 9.44553 7.31507L11.0894 5.67123C12.1305 4.57534 12.1305 2.82192 11.0346 1.78082C9.99347 0.739726 8.29484 0.739726 7.25375 1.78082L6.32224 2.71233" stroke="#82AD00" stroke-linecap="round" stroke-linejoin="round"/>
<path d="M7.52753 5.94458C6.59602 4.7391 4.89739 4.46513 3.69191 5.39664C3.63712 5.50623 3.52753 5.56102 3.41794 5.67061L1.7741 7.31445C0.733008 8.41034 0.733008 10.1638 1.8289 11.2049C2.87 12.246 4.56863 12.246 5.60972 11.2049L6.54123 10.2734" stroke="#82AD00" stroke-linecap="round" stroke-linejoin="round"/>
</svg>
