<svg width="16" height="22" viewBox="0 0 16 22" fill="none" xmlns="http://www.w3.org/2000/svg">
<path fill-rule="evenodd" clip-rule="evenodd" d="M15.5799 5.84757L13.6757 8.76852L8.59062 16.5505L7.72507 17.8802L1.2767 21.3025L0 22L0.064927 20.5177C0.064927 20.5177 0.302959 14.763 0.47607 13.1936L8.3526 1.16096C8.73561 0.588695 9.32634 0.189818 9.99715 0.0492526C10.6701 -0.0817342 11.3669 0.0508151 11.9446 0.419823L14.8442 2.29446C15.1255 2.47637 15.3679 2.71262 15.5561 2.98952C15.7466 3.26642 15.8786 3.57846 15.9478 3.90753C16.0084 4.23836 16.0171 4.57704 15.9695 4.91024C15.8851 5.23985 15.7531 5.55551 15.5799 5.84757ZM13.9138 3.0792L11.5551 1.55333C11.0986 1.26478 10.5489 1.16339 10.0188 1.26995C9.49296 1.38689 9.02989 1.69797 8.72045 2.14188L8.20111 2.94841L8.91521 3.42797L2.79141 12.8012L2.07735 12.3434L1.34162 13.4769C1.19015 14.7194 1.01704 18.5559 1.01704 18.5559L2.35864 19.4714L7.11917 17.2044L7.8549 16.0709L7.14081 15.5914L13.2646 6.21814L13.9787 6.6977L14.498 5.89116C14.643 5.66468 14.7447 5.41354 14.801 5.15002C14.8442 4.89026 14.8442 4.62506 14.801 4.36529C14.7447 4.10859 14.643 3.86465 14.498 3.64595C14.3552 3.41005 14.154 3.21498 13.9138 3.0792ZM4.24123 13.7385L10.3866 4.36529L11.8364 5.30261L5.71265 14.6758L4.24123 13.7385Z" fill="#C0FF00"/>
</svg>
