<svg width="26" height="17" viewBox="0 0 26 17" fill="none" xmlns="http://www.w3.org/2000/svg">
<path d="M16.7632 1.70142C15.5716 1.26608 14.3081 0.999848 13 0.999848C5.82927 0.999848 0 8.99985 0 8.99985C0 8.99985 1.83533 11.5292 4.72116 13.7435L5.85065 12.614C3.57936 10.8425 2.14635 8.90286 2.14635 8.90286C2.14635 8.90286 7 2.33319 13 2.33319C13.9337 2.33319 14.8396 2.49228 15.7037 2.76093L16.7632 1.70142Z" fill="#82AD00"/>
<path d="M15.428 3.03662C14.6697 2.65701 13.8302 2.45633 12.9756 2.45441C11.5585 2.45392 10.199 3.01172 9.19513 4.00589C8.68976 4.49875 8.28903 5.08737 8.01659 5.73706C7.74438 6.38675 7.60585 7.08399 7.60976 7.78772C7.60538 8.64966 7.8119 9.49664 8.2076 10.2571L11.9389 6.52576C11.9309 6.43781 11.9268 6.34927 11.9268 6.26047C11.9241 5.8779 11.9988 5.49875 12.1463 5.1453C12.2907 4.79062 12.5066 4.46869 12.7805 4.19986C13.0554 3.93295 13.3781 3.71912 13.7317 3.56955C14.0871 3.42288 14.4688 3.34869 14.8537 3.35135C14.937 3.35135 15.0202 3.35489 15.1028 3.36182L15.428 3.03662Z" fill="#82AD00"/>
<path d="M12.4188 13.1169L18.3306 7.20508C18.3942 7.75192 18.3741 8.30805 18.2683 8.85437C18.0507 9.88663 17.5432 10.8365 16.8049 11.5938C16.0483 12.3405 15.0861 12.8471 14.0398 13.05C13.503 13.1541 12.9565 13.1758 12.4188 13.1169Z" fill="#82AD00"/>
<path d="M10.4456 15.0901C11.2646 15.3312 12.12 15.4726 13 15.4726C19 15.4726 23.8537 8.90286 23.8537 8.90286C23.8537 8.90286 22.4664 7.02512 20.2583 5.27738L21.2748 4.2609C24.1595 6.47403 26 8.99985 26 8.99985C26 8.99985 20.1951 16.9998 13 16.9998C11.69 16.9998 10.4261 16.7346 9.23486 16.3008L10.4456 15.0901Z" fill="#82AD00"/>
<path fill-rule="evenodd" clip-rule="evenodd" d="M5.29289 16.707C4.90237 16.3164 4.90237 15.6833 5.29289 15.2927L19.8787 0.706956C20.2692 0.316432 20.9024 0.316431 21.2929 0.706956C21.6834 1.09748 21.6834 1.73065 21.2929 2.12117L6.70711 16.707C6.31658 17.0975 5.68342 17.0975 5.29289 16.707Z" fill="#82AD00"/>
</svg>
